<svg xmlns="http://www.w3.org/2000/svg" xmlns:xlink="http://www.w3.org/1999/xlink" width="500" zoomAndPan="magnify" viewBox="0 0 375 374.999991" height="500" preserveAspectRatio="xMidYMid meet" version="1.0"><defs><filter x="0%" y="0%" width="100%" height="100%" id="7576295d3d"><feColorMatrix values="0 0 0 0 1 0 0 0 0 1 0 0 0 0 1 0 0 0 1 0" color-interpolation-filters="sRGB"/></filter><g/><clipPath id="829427c78a"><path d="M 70 68 L 305 68 L 305 302 L 70 302 Z M 70 68 " clip-rule="nonzero"/></clipPath><clipPath id="db48e4dceb"><path d="M 70.976562 126.972656 L 187.496094 68.714844 L 304.019531 126.972656 L 304.019531 243.496094 L 187.496094 301.757812 L 70.976562 243.496094 Z M 70.976562 126.972656 " clip-rule="nonzero"/></clipPath><mask id="de543006f4"><g filter="url(#7576295d3d)"><rect x="-37.5" width="450" fill="#000000" y="-37.499999" height="449.999989" fill-opacity="0.9"/></g></mask><clipPath id="26baaea7bf"><rect x="0" width="183" y="0" height="105"/></clipPath><mask id="1b73034306"><g filter="url(#7576295d3d)"><rect x="-37.5" width="450" fill="#000000" y="-37.499999" height="449.999989" fill-opacity="0.6"/></g></mask><clipPath id="d634c1bc6c"><path d="M 0.441406 0.160156 L 85 0.160156 L 85 128 L 0.441406 128 Z M 0.441406 0.160156 " clip-rule="nonzero"/></clipPath><clipPath id="90451564c3"><rect x="0" width="92" y="0" height="130"/></clipPath><clipPath id="6f35f8a565"><path d="M 76 74 L 299 74 L 299 297 L 76 297 Z M 76 74 " clip-rule="nonzero"/></clipPath><clipPath id="6c3aaced98"><path d="M 76.695312 129.832031 L 187.496094 74.433594 L 298.292969 129.832031 L 298.292969 240.632812 L 187.496094 296.03125 L 76.695312 240.632812 Z M 76.695312 129.832031 " clip-rule="nonzero"/></clipPath><mask id="a7e206968d"><g filter="url(#7576295d3d)"><rect x="-37.5" width="450" fill="#000000" y="-37.499999" height="449.999989" fill-opacity="0.9"/></g></mask><clipPath id="8338cd2d2a"><rect x="0" width="173" y="0" height="100"/></clipPath><mask id="7ec93ee718"><g filter="url(#7576295d3d)"><rect x="-37.5" width="450" fill="#000000" y="-37.499999" height="449.999989" fill-opacity="0.6"/></g></mask><clipPath id="1b74ff3063"><path d="M 0.441406 0.078125 L 81 0.078125 L 81 121 L 0.441406 121 Z M 0.441406 0.078125 " clip-rule="nonzero"/></clipPath><clipPath id="f56112424a"><rect x="0" width="87" y="0" height="124"/></clipPath><clipPath id="1741021a66"><rect x="0" width="54" y="0" height="71"/></clipPath><clipPath id="120fa9bec8"><rect x="0" width="48" y="0" height="72"/></clipPath></defs><g clip-path="url(#829427c78a)"><g clip-path="url(#db48e4dceb)"><path fill="#000000" d="M 70.976562 68.714844 L 70.976562 301.757812 L 304.019531 301.757812 L 304.019531 68.714844 Z M 70.976562 68.714844 " fill-opacity="1" fill-rule="nonzero"/></g></g><g mask="url(#de543006f4)"><g transform="matrix(1, 0, 0, 1, 96, 94)"><g clip-path="url(#26baaea7bf)"><path fill="#ffffff" d="M 91.496094 10.964844 L 175.652344 52.394531 L 91.496094 93.824219 L 7.34375 52.394531 Z M 91.496094 10.964844 " fill-opacity="1" fill-rule="nonzero"/></g></g></g><g mask="url(#1b73034306)"><g transform="matrix(1, 0, 0, 1, 187, 146)"><g clip-path="url(#90451564c3)"><g clip-path="url(#d634c1bc6c)"><path fill="#ffffff" d="M 0.496094 41.824219 L 0.496094 127.273438 L 84.652344 85.84375 L 84.652344 0.394531 Z M 0.496094 41.824219 " fill-opacity="1" fill-rule="nonzero"/></g></g></g></g><g clip-path="url(#6f35f8a565)"><g clip-path="url(#6c3aaced98)"><path fill="#ffc107" d="M 76.695312 74.433594 L 76.695312 296.03125 L 298.292969 296.03125 L 298.292969 74.433594 Z M 76.695312 74.433594 " fill-opacity="1" fill-rule="nonzero"/></g></g><g mask="url(#a7e206968d)"><g transform="matrix(1, 0, 0, 1, 101, 98)"><g clip-path="url(#8338cd2d2a)"><path fill="#ffffff" d="M 86.496094 10.902344 L 166.515625 50.300781 L 86.496094 89.695312 L 6.472656 50.300781 Z M 86.496094 10.902344 " fill-opacity="1" fill-rule="nonzero"/></g></g></g><g mask="url(#7ec93ee718)"><g transform="matrix(1, 0, 0, 1, 187, 148)"><g clip-path="url(#f56112424a)"><g clip-path="url(#1b74ff3063)"><path fill="#ffffff" d="M 0.496094 39.695312 L 0.496094 120.949219 L 80.515625 81.550781 L 80.515625 0.300781 Z M 0.496094 39.695312 " fill-opacity="1" fill-rule="nonzero"/></g></g></g></g><g fill="#000000" fill-opacity="1"><g transform="translate(106.013076, 137.598473)"><g><path d="M -2.15625 -10.90625 L 2.703125 -1.796875 L 2.84375 -1.515625 L 0.796875 -0.421875 L 0.65625 -0.703125 L -4.203125 -9.8125 L -4.34375 -10.09375 L -2.296875 -11.1875 Z M -2.15625 -10.90625 "/></g></g></g><g fill="#000000" fill-opacity="1"><g transform="translate(109.631213, 135.672355)"><g><path d="M 6.0625 -3.234375 L 5.1875 -2.765625 L 2.359375 -8.09375 C 2.160156 -8.445312 1.863281 -8.679688 1.46875 -8.796875 C 1.070312 -8.910156 0.691406 -8.875 0.328125 -8.6875 L -0.890625 -8.03125 L 2.5 -1.6875 L 2.640625 -1.40625 L 0.796875 -0.421875 L 0.65625 -0.703125 L -2.734375 -7.046875 L -2.875 -7.328125 L -2.046875 -7.765625 L -1.90625 -7.84375 L -1.03125 -8.3125 L 1.328125 -9.5625 C 1.703125 -9.757812 2.09375 -9.84375 2.5 -9.8125 C 2.914062 -9.789062 3.300781 -9.675781 3.65625 -9.46875 C 4.019531 -9.257812 4.304688 -8.96875 4.515625 -8.59375 L 6.9375 -4.046875 L 7.078125 -3.765625 Z M 6.0625 -3.234375 "/></g></g></g><g fill="#000000" fill-opacity="1"><g transform="translate(117.419878, 131.526054)"><g><path d="M -3.53125 -6.984375 L -1.65625 -7.984375 L 3.65625 -2.625 L 3.734375 -2.546875 L 3.6875 -2.640625 L 2.234375 -10.046875 L 2.53125 -10.203125 L 4.140625 -2.203125 L 3.828125 -2.046875 L 2.203125 -1.171875 Z M -3.53125 -6.984375 "/></g></g></g><g fill="#000000" fill-opacity="1"><g transform="translate(123.496139, 128.291352)"><g><path d="M 6.671875 -3.546875 L 4.03125 -2.140625 C 3.332031 -1.773438 2.644531 -1.59375 1.96875 -1.59375 C 1.300781 -1.601562 0.679688 -1.796875 0.109375 -2.171875 C -0.460938 -2.546875 -0.941406 -3.097656 -1.328125 -3.828125 C -1.703125 -4.535156 -1.882812 -5.226562 -1.875 -5.90625 C -1.875 -6.582031 -1.691406 -7.203125 -1.328125 -7.765625 C -0.960938 -8.335938 -0.425781 -8.8125 0.28125 -9.1875 C 0.988281 -9.5625 1.675781 -9.738281 2.34375 -9.71875 C 3.019531 -9.707031 3.644531 -9.515625 4.21875 -9.140625 C 4.789062 -8.773438 5.265625 -8.238281 5.640625 -7.53125 L 5.734375 -7.34375 L 0.65625 -4.640625 C 1.28125 -3.609375 1.960938 -2.972656 2.703125 -2.734375 C 3.441406 -2.503906 4.25 -2.625 5.125 -3.09375 L 6.53125 -3.828125 Z M 3.703125 -6.609375 C 3.140625 -7.640625 2.578125 -8.347656 2.015625 -8.734375 C 1.453125 -9.117188 0.925781 -9.175781 0.4375 -8.90625 C -0.0703125 -8.632812 -0.335938 -8.179688 -0.359375 -7.546875 C -0.378906 -6.910156 -0.113281 -6.066406 0.4375 -5.015625 L 0.5 -4.90625 Z M 3.703125 -6.609375 "/></g></g></g><g fill="#000000" fill-opacity="1"><g transform="translate(131.53338, 124.012721)"><g><path d="M 6.0625 -3.234375 L 5.1875 -2.765625 L 2.359375 -8.09375 C 2.160156 -8.445312 1.863281 -8.679688 1.46875 -8.796875 C 1.070312 -8.910156 0.691406 -8.875 0.328125 -8.6875 L -0.890625 -8.03125 L 2.5 -1.6875 L 2.640625 -1.40625 L 0.796875 -0.421875 L 0.65625 -0.703125 L -2.734375 -7.046875 L -2.875 -7.328125 L -2.046875 -7.765625 L -1.90625 -7.84375 L -1.03125 -8.3125 L 1.328125 -9.5625 C 1.703125 -9.757812 2.09375 -9.84375 2.5 -9.8125 C 2.914062 -9.789062 3.300781 -9.675781 3.65625 -9.46875 C 4.019531 -9.257812 4.304688 -8.96875 4.515625 -8.59375 L 6.9375 -4.046875 L 7.078125 -3.765625 Z M 6.0625 -3.234375 "/></g></g></g><g fill="#000000" fill-opacity="1"><g transform="translate(139.322045, 119.866419)"><g><path d="M -3.703125 -9.5625 L -1.859375 -10.546875 L -0.75 -8.46875 L 0.6875 -9.21875 L 0.828125 -8.9375 L -0.609375 -8.1875 L 2.328125 -2.671875 C 2.453125 -2.441406 2.644531 -2.289062 2.90625 -2.21875 C 3.164062 -2.144531 3.410156 -2.171875 3.640625 -2.296875 L 4.21875 -2.59375 L 4.359375 -2.3125 L 2.890625 -1.546875 C 2.554688 -1.359375 2.207031 -1.269531 1.84375 -1.28125 C 1.488281 -1.300781 1.15625 -1.40625 0.84375 -1.59375 C 0.53125 -1.789062 0.285156 -2.0625 0.109375 -2.40625 L -2.453125 -7.203125 L -3.390625 -6.703125 L -3.53125 -6.984375 L -2.59375 -7.484375 Z M -3.703125 -9.5625 "/></g></g></g><g fill="#000000" fill-opacity="1"><g transform="translate(143.768767, 117.499204)"><g><path d="M 1.40625 -9.609375 C 1.78125 -9.804688 2.171875 -9.890625 2.578125 -9.859375 C 2.992188 -9.835938 3.378906 -9.722656 3.734375 -9.515625 C 4.097656 -9.304688 4.382812 -9.015625 4.59375 -8.640625 L 7.015625 -4.09375 L 7.15625 -3.8125 L 6.171875 -3.296875 L 6.09375 -3.25 L 5.265625 -2.8125 L 2.484375 -1.328125 C 2.140625 -1.140625 1.78125 -1.046875 1.40625 -1.046875 C 1.03125 -1.046875 0.664062 -1.15625 0.3125 -1.375 C -0.03125 -1.601562 -0.332031 -1.960938 -0.59375 -2.453125 C -0.851562 -2.929688 -0.972656 -3.375 -0.953125 -3.78125 C -0.941406 -4.195312 -0.832031 -4.554688 -0.625 -4.859375 C -0.414062 -5.171875 -0.140625 -5.421875 0.203125 -5.609375 L 2.984375 -7.09375 L 2.609375 -7.8125 C 2.453125 -8.101562 2.234375 -8.328125 1.953125 -8.484375 C 1.671875 -8.648438 1.363281 -8.742188 1.03125 -8.765625 C 0.695312 -8.785156 0.378906 -8.710938 0.078125 -8.546875 L -2.046875 -7.421875 L -2.3125 -7.265625 L -2.453125 -7.546875 L -2.1875 -7.703125 Z M 5.125 -3.09375 L 3.140625 -6.8125 L 1.765625 -6.078125 C 1.367188 -5.859375 1.09375 -5.539062 0.9375 -5.125 C 0.789062 -4.71875 0.90625 -4.160156 1.28125 -3.453125 C 1.53125 -2.984375 1.796875 -2.648438 2.078125 -2.453125 C 2.359375 -2.253906 2.640625 -2.148438 2.921875 -2.140625 C 3.210938 -2.140625 3.488281 -2.210938 3.75 -2.359375 Z M 5.125 -3.09375 "/></g></g></g><g fill="#000000" fill-opacity="1"><g transform="translate(151.695534, 113.279383)"><g><path d="M 1.703125 -9.765625 L 2.015625 -9.9375 L 2.15625 -9.65625 L 1.84375 -9.484375 L -0.890625 -8.03125 L 2.5 -1.6875 L 2.640625 -1.40625 L 0.796875 -0.421875 L 0.65625 -0.703125 L -2.734375 -7.046875 L -2.875 -7.328125 L -1.90625 -7.84375 L -1.765625 -7.921875 L -1.03125 -8.3125 Z M 1.703125 -9.765625 "/></g></g></g><g fill="#000000" fill-opacity="1"><g transform="translate(157.49561, 110.191709)"><g><path d="M -4.296875 -9.484375 C -4.460938 -9.785156 -4.492188 -10.101562 -4.390625 -10.4375 C -4.285156 -10.769531 -4.082031 -11.015625 -3.78125 -11.171875 C -3.476562 -11.335938 -3.15625 -11.367188 -2.8125 -11.265625 C -2.476562 -11.171875 -2.226562 -10.972656 -2.0625 -10.671875 C -1.90625 -10.367188 -1.878906 -10.046875 -1.984375 -9.703125 C -2.085938 -9.359375 -2.289062 -9.101562 -2.59375 -8.9375 C -2.894531 -8.78125 -3.210938 -8.753906 -3.546875 -8.859375 C -3.890625 -8.972656 -4.140625 -9.179688 -4.296875 -9.484375 Z M -1.90625 -7.84375 L -1.03125 -8.3125 L 2.5 -1.6875 L 2.640625 -1.40625 L 0.765625 -0.40625 L 0.625 -0.6875 L -2.765625 -7.03125 L -2.90625 -7.3125 Z M -1.90625 -7.84375 "/></g></g></g><g fill="#000000" fill-opacity="1"><g transform="translate(160.865172, 108.39792)"><g><path d="M 0.4375 -8.90625 C 0.09375 -8.726562 -0.144531 -8.472656 -0.28125 -8.140625 C -0.414062 -7.816406 -0.414062 -7.382812 -0.28125 -6.84375 C -0.15625 -6.300781 0.132812 -5.601562 0.59375 -4.75 C 1.039062 -3.894531 1.457031 -3.253906 1.84375 -2.828125 C 2.226562 -2.410156 2.585938 -2.171875 2.921875 -2.109375 C 3.265625 -2.046875 3.609375 -2.101562 3.953125 -2.28125 C 4.285156 -2.46875 4.519531 -2.71875 4.65625 -3.03125 C 4.800781 -3.351562 4.804688 -3.789062 4.671875 -4.34375 C 4.535156 -4.894531 4.242188 -5.597656 3.796875 -6.453125 C 3.335938 -7.304688 2.914062 -7.9375 2.53125 -8.34375 C 2.15625 -8.757812 1.796875 -9.003906 1.453125 -9.078125 C 1.109375 -9.148438 0.769531 -9.09375 0.4375 -8.90625 Z M 0.28125 -9.1875 C 0.988281 -9.5625 1.675781 -9.738281 2.34375 -9.71875 C 3.019531 -9.695312 3.644531 -9.492188 4.21875 -9.109375 C 4.800781 -8.722656 5.289062 -8.171875 5.6875 -7.453125 C 6.070312 -6.710938 6.257812 -5.992188 6.25 -5.296875 C 6.25 -4.609375 6.066406 -3.976562 5.703125 -3.40625 C 5.347656 -2.84375 4.816406 -2.375 4.109375 -2 C 3.398438 -1.625 2.707031 -1.445312 2.03125 -1.46875 C 1.351562 -1.488281 0.726562 -1.691406 0.15625 -2.078125 C -0.414062 -2.460938 -0.894531 -3.019531 -1.28125 -3.75 C -1.675781 -4.46875 -1.875 -5.171875 -1.875 -5.859375 C -1.875 -6.554688 -1.691406 -7.191406 -1.328125 -7.765625 C -0.960938 -8.335938 -0.425781 -8.8125 0.28125 -9.1875 Z M 0.28125 -9.1875 "/></g></g></g><g fill="#000000" fill-opacity="1"><g transform="translate(168.906363, 104.117186)"><g/></g></g><g fill="#000000" fill-opacity="1"><g transform="translate(199.078852, 100.436541)"><g><path d="M 5.671875 -9.0625 L 5.8125 -9.34375 L 6.703125 -8.875 L 6.890625 -8.78125 L 7.859375 -8.28125 L 12.40625 -5.953125 L 12.6875 -5.796875 L 12.546875 -5.515625 L 12.265625 -5.671875 L 7.71875 -8 L 5.1875 -3.0625 L 8.078125 -1.578125 L 8.359375 -1.4375 L 8.21875 -1.15625 L 7.9375 -1.296875 L 5.046875 -2.78125 L 3 1.1875 L 2.859375 1.46875 L 0.8125 0.40625 L 0.953125 0.125 Z M 5.671875 -9.0625 "/></g></g></g><g fill="#000000" fill-opacity="1"><g transform="translate(206.817027, 104.409303)"><g><path d="M 8.6875 -4.34375 C 9.070312 -4.144531 9.367188 -3.863281 9.578125 -3.5 C 9.796875 -3.144531 9.921875 -2.757812 9.953125 -2.34375 C 9.992188 -1.9375 9.914062 -1.539062 9.71875 -1.15625 L 7.359375 3.421875 L 7.21875 3.703125 L 6.234375 3.203125 L 6.140625 3.15625 L 5.3125 2.71875 L 2.5 1.28125 C 2.15625 1.101562 1.875 0.859375 1.65625 0.546875 C 1.445312 0.242188 1.332031 -0.113281 1.3125 -0.53125 C 1.300781 -0.945312 1.421875 -1.398438 1.671875 -1.890625 C 1.921875 -2.378906 2.21875 -2.734375 2.5625 -2.953125 C 2.90625 -3.171875 3.265625 -3.28125 3.640625 -3.28125 C 4.015625 -3.289062 4.375 -3.207031 4.71875 -3.03125 L 7.53125 -1.59375 L 7.890625 -2.3125 C 8.046875 -2.613281 8.113281 -2.925781 8.09375 -3.25 C 8.070312 -3.570312 7.96875 -3.867188 7.78125 -4.140625 C 7.601562 -4.421875 7.363281 -4.640625 7.0625 -4.796875 L 4.921875 -5.90625 L 4.640625 -6.046875 L 4.796875 -6.34375 L 5.078125 -6.203125 Z M 5.453125 2.4375 L 7.375 -1.3125 L 5.984375 -2.015625 C 5.585938 -2.222656 5.175781 -2.269531 4.75 -2.15625 C 4.320312 -2.039062 3.925781 -1.628906 3.5625 -0.921875 C 3.320312 -0.441406 3.195312 -0.03125 3.1875 0.3125 C 3.1875 0.65625 3.265625 0.941406 3.421875 1.171875 C 3.585938 1.410156 3.800781 1.597656 4.0625 1.734375 Z M 5.453125 2.4375 "/></g></g></g><g fill="#000000" fill-opacity="1"><g transform="translate(214.805719, 108.510681)"><g><path d="M 9.765625 -3.421875 L 8.53125 -4.046875 C 8.070312 -4.285156 7.59375 -4.40625 7.09375 -4.40625 C 6.601562 -4.414062 6.117188 -4.25 5.640625 -3.90625 C 5.171875 -3.5625 4.726562 -2.984375 4.3125 -2.171875 C 3.894531 -1.367188 3.691406 -0.671875 3.703125 -0.078125 C 3.722656 0.515625 3.878906 1.007812 4.171875 1.40625 C 4.460938 1.8125 4.820312 2.125 5.25 2.34375 L 6.75 3.109375 L 6.609375 3.390625 L 3.71875 1.90625 C 3.195312 1.632812 2.765625 1.257812 2.421875 0.78125 C 2.085938 0.3125 1.90625 -0.253906 1.875 -0.921875 C 1.84375 -1.585938 2.035156 -2.320312 2.453125 -3.125 C 2.867188 -3.9375 3.351562 -4.523438 3.90625 -4.890625 C 4.46875 -5.253906 5.039062 -5.441406 5.625 -5.453125 C 6.21875 -5.460938 6.773438 -5.332031 7.296875 -5.0625 L 9.921875 -3.71875 L 10.1875 -3.578125 L 10.03125 -3.28125 Z M 9.765625 -3.421875 "/></g></g></g><g fill="#000000" fill-opacity="1"><g transform="translate(221.708837, 112.054728)"><g><path d="M 5.71875 -8.484375 L 7.59375 -7.53125 L 6.53125 -5.453125 L 7.96875 -4.71875 L 7.8125 -4.421875 L 6.375 -5.15625 L 3.53125 0.40625 C 3.40625 0.632812 3.382812 0.875 3.46875 1.125 C 3.5625 1.375 3.722656 1.554688 3.953125 1.671875 L 4.53125 1.96875 L 4.390625 2.25 L 2.921875 1.5 C 2.578125 1.320312 2.304688 1.082031 2.109375 0.78125 C 1.921875 0.476562 1.8125 0.144531 1.78125 -0.21875 C 1.757812 -0.582031 1.835938 -0.929688 2.015625 -1.265625 L 4.5 -6.109375 L 3.5625 -6.59375 L 3.71875 -6.890625 L 4.65625 -6.40625 Z M 5.71875 -8.484375 "/></g></g></g><g fill="#000000" fill-opacity="1"><g transform="translate(226.190297, 114.3555)"><g><path d="M 5.359375 -6.0625 L 6.25 -5.59375 L 3.484375 -0.203125 C 3.296875 0.148438 3.269531 0.519531 3.40625 0.90625 C 3.539062 1.300781 3.785156 1.59375 4.140625 1.78125 L 5.34375 2.390625 L 8.78125 -4.296875 L 8.796875 -4.28125 L 10.703125 -3.3125 L 10.546875 -3.015625 L 7.265625 3.375 L 7.125 3.65625 L 6.25 3.21875 L 6.109375 3.140625 L 5.203125 2.671875 L 2.890625 1.484375 C 2.515625 1.285156 2.21875 1.007812 2 0.65625 C 1.78125 0.3125 1.65625 -0.0664062 1.625 -0.484375 C 1.601562 -0.898438 1.691406 -1.296875 1.890625 -1.671875 L 4.234375 -6.265625 L 4.390625 -6.5625 Z M 5.359375 -6.0625 "/></g></g></g><g fill="#000000" fill-opacity="1"><g transform="translate(234.039809, 118.385423)"><g><path d="M 9 -4.1875 L 9.3125 -4.03125 L 9.15625 -3.734375 L 8.84375 -3.890625 L 6.09375 -5.296875 L 2.8125 1.09375 L 2.671875 1.375 L 0.8125 0.40625 L 0.953125 0.125 L 4.234375 -6.265625 L 4.390625 -6.5625 L 5.359375 -6.0625 L 5.5 -5.984375 L 6.25 -5.59375 Z M 9 -4.1875 "/></g></g></g><g fill="#000000" fill-opacity="1"><g transform="translate(239.885196, 121.386433)"><g><path d="M 8.6875 -4.34375 C 9.070312 -4.144531 9.367188 -3.863281 9.578125 -3.5 C 9.796875 -3.144531 9.921875 -2.757812 9.953125 -2.34375 C 9.992188 -1.9375 9.914062 -1.539062 9.71875 -1.15625 L 7.359375 3.421875 L 7.21875 3.703125 L 6.234375 3.203125 L 6.140625 3.15625 L 5.3125 2.71875 L 2.5 1.28125 C 2.15625 1.101562 1.875 0.859375 1.65625 0.546875 C 1.445312 0.242188 1.332031 -0.113281 1.3125 -0.53125 C 1.300781 -0.945312 1.421875 -1.398438 1.671875 -1.890625 C 1.921875 -2.378906 2.21875 -2.734375 2.5625 -2.953125 C 2.90625 -3.171875 3.265625 -3.28125 3.640625 -3.28125 C 4.015625 -3.289062 4.375 -3.207031 4.71875 -3.03125 L 7.53125 -1.59375 L 7.890625 -2.3125 C 8.046875 -2.613281 8.113281 -2.925781 8.09375 -3.25 C 8.070312 -3.570312 7.96875 -3.867188 7.78125 -4.140625 C 7.601562 -4.421875 7.363281 -4.640625 7.0625 -4.796875 L 4.921875 -5.90625 L 4.640625 -6.046875 L 4.796875 -6.34375 L 5.078125 -6.203125 Z M 5.453125 2.4375 L 7.375 -1.3125 L 5.984375 -2.015625 C 5.585938 -2.222656 5.175781 -2.269531 4.75 -2.15625 C 4.320312 -2.039062 3.925781 -1.628906 3.5625 -0.921875 C 3.320312 -0.441406 3.195312 -0.03125 3.1875 0.3125 C 3.1875 0.65625 3.265625 0.941406 3.421875 1.171875 C 3.585938 1.410156 3.800781 1.597656 4.0625 1.734375 Z M 5.453125 2.4375 "/></g></g></g><g fill="#000000" fill-opacity="1"><g transform="translate(247.873889, 125.487811)"><g><path d="M 9.765625 -3.421875 L 8.53125 -4.046875 C 8.070312 -4.285156 7.59375 -4.40625 7.09375 -4.40625 C 6.601562 -4.414062 6.117188 -4.25 5.640625 -3.90625 C 5.171875 -3.5625 4.726562 -2.984375 4.3125 -2.171875 C 3.894531 -1.367188 3.691406 -0.671875 3.703125 -0.078125 C 3.722656 0.515625 3.878906 1.007812 4.171875 1.40625 C 4.460938 1.8125 4.820312 2.125 5.25 2.34375 L 6.75 3.109375 L 6.609375 3.390625 L 3.71875 1.90625 C 3.195312 1.632812 2.765625 1.257812 2.421875 0.78125 C 2.085938 0.3125 1.90625 -0.253906 1.875 -0.921875 C 1.84375 -1.585938 2.035156 -2.320312 2.453125 -3.125 C 2.867188 -3.9375 3.351562 -4.523438 3.90625 -4.890625 C 4.46875 -5.253906 5.039062 -5.441406 5.625 -5.453125 C 6.21875 -5.460938 6.773438 -5.332031 7.296875 -5.0625 L 9.921875 -3.71875 L 10.1875 -3.578125 L 10.03125 -3.28125 Z M 9.765625 -3.421875 "/></g></g></g><g fill="#000000" fill-opacity="1"><g transform="translate(254.777006, 129.031857)"><g><path d="M 5.328125 -8.953125 C 5.484375 -9.253906 5.722656 -9.457031 6.046875 -9.5625 C 6.378906 -9.664062 6.703125 -9.640625 7.015625 -9.484375 C 7.316406 -9.328125 7.523438 -9.082031 7.640625 -8.75 C 7.753906 -8.414062 7.734375 -8.097656 7.578125 -7.796875 C 7.421875 -7.484375 7.171875 -7.269531 6.828125 -7.15625 C 6.484375 -7.050781 6.160156 -7.078125 5.859375 -7.234375 C 5.546875 -7.390625 5.335938 -7.632812 5.234375 -7.96875 C 5.140625 -8.3125 5.171875 -8.640625 5.328125 -8.953125 Z M 5.359375 -6.0625 L 6.25 -5.59375 L 2.8125 1.09375 L 2.671875 1.375 L 0.78125 0.40625 L 0.921875 0.125 L 4.203125 -6.265625 L 4.359375 -6.5625 Z M 5.359375 -6.0625 "/></g></g></g><g fill="#000000" fill-opacity="1"><g transform="translate(258.172892, 130.775297)"><g><path d="M 12.0625 -7 L 8.265625 -5.75 L 7.953125 -5.90625 L 10.3125 -7.890625 Z M 7.5625 -4.734375 C 7.21875 -4.910156 6.875 -4.957031 6.53125 -4.875 C 6.1875 -4.800781 5.828125 -4.554688 5.453125 -4.140625 C 5.085938 -3.722656 4.679688 -3.082031 4.234375 -2.21875 C 3.796875 -1.363281 3.515625 -0.65625 3.390625 -0.09375 C 3.265625 0.457031 3.269531 0.890625 3.40625 1.203125 C 3.550781 1.515625 3.796875 1.757812 4.140625 1.9375 C 4.484375 2.113281 4.820312 2.164062 5.15625 2.09375 C 5.5 2.03125 5.859375 1.785156 6.234375 1.359375 C 6.609375 0.929688 7.015625 0.289062 7.453125 -0.5625 C 7.898438 -1.425781 8.179688 -2.128906 8.296875 -2.671875 C 8.421875 -3.222656 8.414062 -3.660156 8.28125 -3.984375 C 8.144531 -4.304688 7.90625 -4.554688 7.5625 -4.734375 Z M 7.703125 -5.03125 C 8.410156 -4.65625 8.953125 -4.179688 9.328125 -3.609375 C 9.703125 -3.046875 9.894531 -2.414062 9.90625 -1.71875 C 9.914062 -1.03125 9.734375 -0.316406 9.359375 0.421875 C 8.984375 1.160156 8.507812 1.722656 7.9375 2.109375 C 7.363281 2.503906 6.738281 2.710938 6.0625 2.734375 C 5.382812 2.765625 4.691406 2.59375 3.984375 2.21875 C 3.265625 1.851562 2.722656 1.390625 2.359375 0.828125 C 1.992188 0.265625 1.804688 -0.359375 1.796875 -1.046875 C 1.785156 -1.742188 1.96875 -2.457031 2.34375 -3.1875 C 2.71875 -3.925781 3.1875 -4.488281 3.75 -4.875 C 4.320312 -5.269531 4.941406 -5.484375 5.609375 -5.515625 C 6.285156 -5.554688 6.984375 -5.394531 7.703125 -5.03125 Z M 7.703125 -5.03125 "/></g></g></g><g fill="#000000" fill-opacity="1"><g transform="translate(266.272921, 134.933836)"><g><path d="M 6.109375 3.140625 L 5.21875 2.6875 L 7.96875 -2.671875 C 8.15625 -3.035156 8.179688 -3.410156 8.046875 -3.796875 C 7.921875 -4.191406 7.675781 -4.484375 7.3125 -4.671875 L 6.09375 -5.296875 L 2.8125 1.09375 L 2.671875 1.375 L 0.8125 0.40625 L 0.953125 0.125 L 4.234375 -6.265625 L 4.390625 -6.5625 L 5.21875 -6.125 L 5.359375 -6.0625 L 6.25 -5.59375 L 8.609375 -4.390625 C 8.992188 -4.191406 9.289062 -3.910156 9.5 -3.546875 C 9.71875 -3.191406 9.84375 -2.804688 9.875 -2.390625 C 9.90625 -1.984375 9.820312 -1.585938 9.625 -1.203125 L 7.265625 3.375 L 7.125 3.65625 Z M 6.109375 3.140625 "/></g></g></g><g fill="#000000" fill-opacity="1"><g transform="translate(218.592075, 273.719977)"><g><path d="M -4.796875 -9.859375 L -2.59375 -10.96875 L 4.875 -3.125 L 4.9375 -3.0625 L 4.921875 -3.140625 L 3.078125 -13.828125 L 3.390625 -13.984375 L 5.328125 -2.6875 L 5.28125 -2.65625 L 5.046875 -2.546875 L 3.09375 -1.5625 Z M -4.796875 -9.859375 "/></g></g></g><g fill="#000000" fill-opacity="1"><g transform="translate(227.030149, 269.466869)"><g><path d="M 6.75 -3.40625 L 4.078125 -2.046875 C 3.367188 -1.691406 2.675781 -1.523438 2 -1.546875 C 1.332031 -1.566406 0.71875 -1.769531 0.15625 -2.15625 C -0.40625 -2.550781 -0.867188 -3.117188 -1.234375 -3.859375 C -1.597656 -4.566406 -1.769531 -5.257812 -1.75 -5.9375 C -1.726562 -6.613281 -1.53125 -7.234375 -1.15625 -7.796875 C -0.78125 -8.359375 -0.234375 -8.816406 0.484375 -9.171875 C 1.203125 -9.535156 1.894531 -9.703125 2.5625 -9.671875 C 3.238281 -9.640625 3.859375 -9.429688 4.421875 -9.046875 C 4.984375 -8.660156 5.445312 -8.113281 5.8125 -7.40625 L 5.90625 -7.203125 L 0.765625 -4.625 C 1.359375 -3.570312 2.019531 -2.921875 2.75 -2.671875 C 3.488281 -2.421875 4.300781 -2.519531 5.1875 -2.96875 L 6.609375 -3.6875 Z M 3.84375 -6.53125 C 3.300781 -7.570312 2.753906 -8.289062 2.203125 -8.6875 C 1.648438 -9.082031 1.125 -9.148438 0.625 -8.890625 C 0.113281 -8.640625 -0.15625 -8.191406 -0.1875 -7.546875 C -0.226562 -6.910156 0.015625 -6.0625 0.546875 -5 L 0.609375 -4.890625 Z M 3.84375 -6.53125 "/></g></g></g><g fill="#000000" fill-opacity="1"><g transform="translate(235.160876, 265.368675)"><g><path d="M 6.140625 -3.09375 L 5.25 -2.640625 L 2.53125 -8.03125 C 2.351562 -8.394531 2.066406 -8.640625 1.671875 -8.765625 C 1.273438 -8.890625 0.894531 -8.859375 0.53125 -8.671875 L -0.703125 -8.046875 L 2.53125 -1.625 L 2.671875 -1.34375 L 0.8125 -0.40625 L 0.671875 -0.6875 L -2.5625 -7.109375 L -2.703125 -7.390625 L -1.875 -7.8125 L -1.734375 -7.890625 L -0.84375 -8.328125 L 1.53125 -9.53125 C 1.914062 -9.71875 2.3125 -9.796875 2.71875 -9.765625 C 3.132812 -9.734375 3.519531 -9.609375 3.875 -9.390625 C 4.226562 -9.171875 4.5 -8.875 4.6875 -8.5 L 7.015625 -3.890625 L 7.15625 -3.609375 Z M 6.140625 -3.09375 "/></g></g></g><g fill="#000000" fill-opacity="1"><g transform="translate(243.040136, 261.39723)"><g><path d="M -3.484375 -9.625 L -1.625 -10.5625 L -0.5625 -8.46875 L 0.890625 -9.203125 L 1.03125 -8.921875 L -0.421875 -8.1875 L 2.390625 -2.59375 C 2.503906 -2.363281 2.6875 -2.210938 2.9375 -2.140625 C 3.195312 -2.066406 3.445312 -2.085938 3.6875 -2.203125 L 4.265625 -2.5 L 4.40625 -2.21875 L 2.9375 -1.484375 C 2.582031 -1.304688 2.222656 -1.226562 1.859375 -1.25 C 1.503906 -1.269531 1.175781 -1.378906 0.875 -1.578125 C 0.570312 -1.773438 0.335938 -2.046875 0.171875 -2.390625 L -2.28125 -7.25 L -3.234375 -6.78125 L -3.375 -7.0625 L -2.421875 -7.53125 Z M -3.484375 -9.625 "/></g></g></g><g fill="#000000" fill-opacity="1"><g transform="translate(247.53858, 259.129844)"><g><path d="M 1.625 -9.578125 C 2 -9.765625 2.390625 -9.84375 2.796875 -9.8125 C 3.210938 -9.78125 3.597656 -9.65625 3.953125 -9.4375 C 4.304688 -9.21875 4.578125 -8.921875 4.765625 -8.546875 L 7.09375 -3.9375 L 7.234375 -3.65625 L 6.25 -3.15625 L 6.171875 -3.109375 L 5.328125 -2.6875 L 2.515625 -1.265625 C 2.171875 -1.085938 1.8125 -1.003906 1.4375 -1.015625 C 1.0625 -1.023438 0.703125 -1.144531 0.359375 -1.375 C 0.015625 -1.601562 -0.28125 -1.960938 -0.53125 -2.453125 C -0.78125 -2.953125 -0.894531 -3.40625 -0.875 -3.8125 C -0.851562 -4.21875 -0.734375 -4.570312 -0.515625 -4.875 C -0.296875 -5.175781 -0.015625 -5.414062 0.328125 -5.59375 L 3.140625 -7.015625 L 2.78125 -7.734375 C 2.632812 -8.035156 2.421875 -8.273438 2.140625 -8.453125 C 1.867188 -8.628906 1.566406 -8.726562 1.234375 -8.75 C 0.898438 -8.769531 0.582031 -8.703125 0.28125 -8.546875 L -1.875 -7.46875 L -2.140625 -7.328125 L -2.28125 -7.609375 L -2.015625 -7.75 Z M 5.1875 -2.96875 L 3.28125 -6.734375 L 1.890625 -6.03125 C 1.484375 -5.832031 1.203125 -5.523438 1.046875 -5.109375 C 0.890625 -4.691406 0.992188 -4.125 1.359375 -3.40625 C 1.597656 -2.9375 1.851562 -2.597656 2.125 -2.390625 C 2.40625 -2.191406 2.6875 -2.085938 2.96875 -2.078125 C 3.257812 -2.066406 3.535156 -2.128906 3.796875 -2.265625 Z M 5.1875 -2.96875 "/></g></g></g><g fill="#000000" fill-opacity="1"><g transform="translate(255.557549, 255.08798)"><g><path d="M 2.0625 -9.453125 L 0.25 -8.53125 C -0.132812 -8.332031 -0.378906 -8.09375 -0.484375 -7.8125 C -0.585938 -7.53125 -0.5625 -7.226562 -0.40625 -6.90625 C -0.226562 -6.5625 0.0078125 -6.347656 0.3125 -6.265625 C 0.613281 -6.179688 0.929688 -6.171875 1.265625 -6.234375 L 2.671875 -6.515625 C 3.265625 -6.640625 3.789062 -6.613281 4.25 -6.4375 C 4.707031 -6.257812 5.09375 -5.863281 5.40625 -5.25 C 5.71875 -4.632812 5.765625 -4.046875 5.546875 -3.484375 C 5.335938 -2.921875 4.898438 -2.472656 4.234375 -2.140625 L 1.203125 -0.609375 L 0.921875 -0.46875 L 0.78125 -0.75 L 3.125 -1.921875 C 3.5625 -2.140625 3.832031 -2.394531 3.9375 -2.6875 C 4.039062 -2.976562 4.015625 -3.28125 3.859375 -3.59375 C 3.679688 -3.925781 3.457031 -4.140625 3.1875 -4.234375 C 2.914062 -4.335938 2.582031 -4.347656 2.1875 -4.265625 L 0.796875 -3.96875 C 0.210938 -3.851562 -0.316406 -3.894531 -0.796875 -4.09375 C -1.273438 -4.289062 -1.65625 -4.675781 -1.9375 -5.25 C -2.257812 -5.882812 -2.304688 -6.476562 -2.078125 -7.03125 C -1.859375 -7.59375 -1.425781 -8.035156 -0.78125 -8.359375 L 1.921875 -9.734375 L 2.203125 -9.875 L 2.34375 -9.59375 Z M 2.0625 -9.453125 "/></g></g></g><g fill="#000000" fill-opacity="1"><g transform="translate(101.281785, 239.605477)"><g><path d="M 7.890625 -8.25 L 10.171875 -7.078125 C 11.140625 -6.578125 11.789062 -5.929688 12.125 -5.140625 C 12.457031 -4.359375 12.347656 -3.4375 11.796875 -2.375 C 11.453125 -1.695312 11.039062 -1.203125 10.5625 -0.890625 C 10.082031 -0.585938 9.554688 -0.441406 8.984375 -0.453125 L 8.921875 4.609375 L 6.65625 3.4375 L 6.703125 -1.1875 L 4.75 -2.1875 L 2.859375 1.484375 L 0.8125 0.421875 L 5.84375 -9.3125 L 7.359375 -8.53125 Z M 7.75 -7.96875 L 4.890625 -2.453125 L 5.921875 -1.921875 C 6.347656 -1.703125 6.785156 -1.582031 7.234375 -1.5625 C 7.691406 -1.550781 8.128906 -1.6875 8.546875 -1.96875 C 8.972656 -2.257812 9.363281 -2.75 9.71875 -3.4375 C 10.082031 -4.144531 10.265625 -4.753906 10.265625 -5.265625 C 10.273438 -5.773438 10.144531 -6.203125 9.875 -6.546875 C 9.601562 -6.898438 9.238281 -7.195312 8.78125 -7.4375 Z M 7.75 -7.96875 "/></g></g></g><g fill="#000000" fill-opacity="1"><g transform="translate(110.314605, 244.276294)"><g><path d="M 6.71875 3.46875 L 4.046875 2.09375 C 3.347656 1.726562 2.804688 1.265625 2.421875 0.703125 C 2.046875 0.148438 1.851562 -0.460938 1.84375 -1.140625 C 1.832031 -1.828125 2.019531 -2.535156 2.40625 -3.265625 C 2.769531 -3.984375 3.226562 -4.53125 3.78125 -4.90625 C 4.34375 -5.28125 4.960938 -5.476562 5.640625 -5.5 C 6.316406 -5.53125 7.007812 -5.363281 7.71875 -5 C 8.4375 -4.632812 8.976562 -4.164062 9.34375 -3.59375 C 9.707031 -3.03125 9.898438 -2.410156 9.921875 -1.734375 C 9.941406 -1.054688 9.769531 -0.359375 9.40625 0.359375 L 9.296875 0.546875 L 4.1875 -2.09375 C 3.695312 -1 3.5625 -0.0820312 3.78125 0.65625 C 4.007812 1.40625 4.5625 2.003906 5.4375 2.453125 L 6.859375 3.1875 Z M 7.53125 -0.71875 C 8.070312 -1.757812 8.335938 -2.617188 8.328125 -3.296875 C 8.316406 -3.972656 8.0625 -4.441406 7.5625 -4.703125 C 7.0625 -4.960938 6.539062 -4.921875 6 -4.578125 C 5.457031 -4.234375 4.914062 -3.535156 4.375 -2.484375 L 4.3125 -2.375 Z M 7.53125 -0.71875 "/></g></g></g><g fill="#000000" fill-opacity="1"><g transform="translate(118.402454, 248.458473)"><g><path d="M 9.25 0.390625 C 8.832031 1.191406 8.34375 1.773438 7.78125 2.140625 C 7.226562 2.503906 6.65625 2.679688 6.0625 2.671875 C 5.46875 2.671875 4.910156 2.535156 4.390625 2.265625 L 2.671875 1.375 L 1.375 3.875 L 1.234375 4.15625 L -0.625 3.203125 L -0.484375 2.921875 L 4.25 -6.234375 L 4.40625 -6.53125 L 5.34375 -6.046875 L 5.375 -6.03125 L 6.265625 -5.578125 L 7.984375 -4.6875 C 8.503906 -4.414062 8.9375 -4.035156 9.28125 -3.546875 C 9.625 -3.054688 9.804688 -2.476562 9.828125 -1.8125 C 9.859375 -1.144531 9.664062 -0.410156 9.25 0.390625 Z M 2.8125 1.09375 L 3.8125 1.609375 C 4.132812 1.785156 4.492188 1.847656 4.890625 1.796875 C 5.285156 1.742188 5.6875 1.53125 6.09375 1.15625 C 6.507812 0.789062 6.925781 0.207031 7.34375 -0.59375 C 7.757812 -1.394531 8 -2.070312 8.0625 -2.625 C 8.125 -3.1875 8.0625 -3.640625 7.875 -3.984375 C 7.6875 -4.335938 7.429688 -4.597656 7.109375 -4.765625 L 6.109375 -5.28125 Z M 2.8125 1.09375 "/></g></g></g><g fill="#000000" fill-opacity="1"><g transform="translate(126.323549, 252.554424)"><g><path d="M 7.5625 -4.703125 C 7.226562 -4.878906 6.882812 -4.929688 6.53125 -4.859375 C 6.1875 -4.785156 5.828125 -4.539062 5.453125 -4.125 C 5.085938 -3.707031 4.679688 -3.066406 4.234375 -2.203125 C 3.785156 -1.335938 3.5 -0.628906 3.375 -0.078125 C 3.25 0.460938 3.257812 0.890625 3.40625 1.203125 C 3.550781 1.523438 3.789062 1.773438 4.125 1.953125 C 4.46875 2.128906 4.804688 2.179688 5.140625 2.109375 C 5.484375 2.046875 5.84375 1.800781 6.21875 1.375 C 6.59375 0.957031 7.003906 0.316406 7.453125 -0.546875 C 7.898438 -1.410156 8.179688 -2.113281 8.296875 -2.65625 C 8.421875 -3.195312 8.414062 -3.628906 8.28125 -3.953125 C 8.144531 -4.273438 7.90625 -4.523438 7.5625 -4.703125 Z M 7.71875 -5 C 8.4375 -4.632812 8.976562 -4.164062 9.34375 -3.59375 C 9.707031 -3.019531 9.894531 -2.382812 9.90625 -1.6875 C 9.914062 -1 9.734375 -0.289062 9.359375 0.4375 C 8.972656 1.175781 8.492188 1.738281 7.921875 2.125 C 7.347656 2.519531 6.722656 2.726562 6.046875 2.75 C 5.378906 2.769531 4.6875 2.597656 3.96875 2.234375 C 3.257812 1.867188 2.722656 1.398438 2.359375 0.828125 C 1.992188 0.265625 1.804688 -0.359375 1.796875 -1.046875 C 1.796875 -1.742188 1.984375 -2.457031 2.359375 -3.1875 C 2.734375 -3.914062 3.203125 -4.472656 3.765625 -4.859375 C 4.335938 -5.253906 4.960938 -5.46875 5.640625 -5.5 C 6.316406 -5.53125 7.007812 -5.363281 7.71875 -5 Z M 7.71875 -5 "/></g></g></g><g fill="#000000" fill-opacity="1"><g transform="translate(134.411399, 256.736602)"><g><path d="M 9 -4.15625 L 9.3125 -4 L 9.15625 -3.703125 L 8.84375 -3.859375 L 6.109375 -5.28125 L 2.8125 1.09375 L 2.671875 1.375 L 0.8125 0.421875 L 0.953125 0.140625 L 4.25 -6.234375 L 4.40625 -6.53125 L 5.375 -6.03125 L 5.515625 -5.96875 L 6.265625 -5.578125 Z M 9 -4.15625 "/></g></g></g><g fill="#000000" fill-opacity="1"><g transform="translate(140.247996, 259.754672)"><g><path d="M 5.75 -8.46875 L 7.609375 -7.515625 L 6.53125 -5.4375 L 7.984375 -4.6875 L 7.828125 -4.390625 L 6.375 -5.140625 L 3.515625 0.40625 C 3.390625 0.632812 3.367188 0.875 3.453125 1.125 C 3.546875 1.375 3.707031 1.5625 3.9375 1.6875 L 4.53125 1.984375 L 4.390625 2.265625 L 2.921875 1.5 C 2.578125 1.320312 2.304688 1.082031 2.109375 0.78125 C 1.910156 0.476562 1.800781 0.148438 1.78125 -0.203125 C 1.769531 -0.566406 1.851562 -0.921875 2.03125 -1.265625 L 4.515625 -6.09375 L 3.578125 -6.578125 L 3.734375 -6.875 L 4.671875 -6.390625 Z M 5.75 -8.46875 "/></g></g></g><g fill="#000000" fill-opacity="1"><g transform="translate(144.722717, 262.068524)"><g><path d="M 6.71875 3.46875 L 4.046875 2.09375 C 3.347656 1.726562 2.804688 1.265625 2.421875 0.703125 C 2.046875 0.148438 1.851562 -0.460938 1.84375 -1.140625 C 1.832031 -1.828125 2.019531 -2.535156 2.40625 -3.265625 C 2.769531 -3.984375 3.226562 -4.53125 3.78125 -4.90625 C 4.34375 -5.28125 4.960938 -5.476562 5.640625 -5.5 C 6.316406 -5.53125 7.007812 -5.363281 7.71875 -5 C 8.4375 -4.632812 8.976562 -4.164062 9.34375 -3.59375 C 9.707031 -3.03125 9.898438 -2.410156 9.921875 -1.734375 C 9.941406 -1.054688 9.769531 -0.359375 9.40625 0.359375 L 9.296875 0.546875 L 4.1875 -2.09375 C 3.695312 -1 3.5625 -0.0820312 3.78125 0.65625 C 4.007812 1.40625 4.5625 2.003906 5.4375 2.453125 L 6.859375 3.1875 Z M 7.53125 -0.71875 C 8.070312 -1.757812 8.335938 -2.617188 8.328125 -3.296875 C 8.316406 -3.972656 8.0625 -4.441406 7.5625 -4.703125 C 7.0625 -4.960938 6.539062 -4.921875 6 -4.578125 C 5.457031 -4.234375 4.914062 -3.535156 4.375 -2.484375 L 4.3125 -2.375 Z M 7.53125 -0.71875 "/></g></g></g><g fill="#000000" fill-opacity="1"><g transform="translate(152.810567, 266.250702)"><g><path d="M 8.84375 -3.859375 L 7.046875 -4.796875 C 6.660156 -4.992188 6.320312 -5.050781 6.03125 -4.96875 C 5.75 -4.894531 5.519531 -4.695312 5.34375 -4.375 C 5.164062 -4.03125 5.132812 -3.707031 5.25 -3.40625 C 5.363281 -3.113281 5.546875 -2.851562 5.796875 -2.625 L 6.84375 -1.671875 C 7.289062 -1.265625 7.578125 -0.820312 7.703125 -0.34375 C 7.828125 0.132812 7.734375 0.679688 7.421875 1.296875 C 7.109375 1.910156 6.660156 2.296875 6.078125 2.453125 C 5.492188 2.609375 4.875 2.519531 4.21875 2.1875 L 1.1875 0.625 L 0.921875 0.46875 L 1.0625 0.1875 L 1.328125 0.34375 L 3.390625 1.390625 C 3.828125 1.617188 4.191406 1.691406 4.484375 1.609375 C 4.785156 1.523438 5.015625 1.332031 5.171875 1.03125 C 5.347656 0.695312 5.394531 0.390625 5.3125 0.109375 C 5.226562 -0.171875 5.035156 -0.445312 4.734375 -0.71875 L 3.6875 -1.6875 C 3.25 -2.09375 2.96875 -2.546875 2.84375 -3.046875 C 2.726562 -3.554688 2.820312 -4.09375 3.125 -4.65625 C 3.445312 -5.289062 3.894531 -5.679688 4.46875 -5.828125 C 5.050781 -5.972656 5.664062 -5.878906 6.3125 -5.546875 L 9 -4.15625 L 9.28125 -4.015625 L 9.125 -3.71875 Z M 8.84375 -3.859375 "/></g></g></g><g transform="matrix(1, 0, 0, 1, 164, 116)"><g clip-path="url(#1741021a66)"><g fill="#000000" fill-opacity="1"><g transform="translate(22.64283, 48.841126)"><g><path d="M -9.21875 -21.421875 L -4.875 -23.734375 L 0.4375 -13.765625 L 3.484375 -15.390625 L 6.265625 -29.671875 L 7.015625 -30.0625 L 5.15625 -19.6875 L 18.828125 -10.015625 L 14.296875 -7.609375 L 3.6875 -14.765625 L 0.734375 -13.1875 L 6.046875 -3.21875 L 1.703125 -0.90625 Z M -9.21875 -21.421875 "/></g></g></g></g></g><g transform="matrix(1, 0, 0, 1, 198, 187)"><g clip-path="url(#120fa9bec8)"><g fill="#000000" fill-opacity="1"><g transform="translate(17.309304, 48.893123)"><g><path d="M 6.125 -15.453125 L 14.90625 -19.078125 L 19.46875 -8.03125 L 19.09375 -7.875 L 14.984375 -6.1875 L 10.4375 -4.3125 C 9.257812 -3.820312 8.03125 -3.554688 6.75 -3.515625 C 5.46875 -3.472656 4.210938 -3.707031 2.984375 -4.21875 C 1.753906 -4.738281 0.609375 -5.570312 -0.453125 -6.71875 C -1.515625 -7.875 -2.429688 -9.382812 -3.203125 -11.25 C -3.984375 -13.132812 -4.398438 -14.851562 -4.453125 -16.40625 C -4.503906 -17.96875 -4.273438 -19.363281 -3.765625 -20.59375 C -3.253906 -21.820312 -2.53125 -22.875 -1.59375 -23.75 C -0.664062 -24.632812 0.382812 -25.320312 1.5625 -25.8125 L 10.046875 -29.3125 L 10.65625 -29.5625 L 10.921875 -28.953125 L 10.3125 -28.703125 L 5.21875 -26.59375 C 3.632812 -25.9375 2.394531 -24.96875 1.5 -23.6875 C 0.613281 -22.414062 0.140625 -20.890625 0.078125 -19.109375 C 0.015625 -17.328125 0.4375 -15.335938 1.34375 -13.140625 C 2.25 -10.953125 3.363281 -9.25 4.6875 -8.03125 C 6.007812 -6.8125 7.4375 -6.0625 8.96875 -5.78125 C 10.5 -5.507812 12.035156 -5.691406 13.578125 -6.328125 L 14.734375 -6.8125 L 10.671875 -16.625 L 6.375 -14.84375 Z M 6.125 -15.453125 "/></g></g></g></g></g></svg>